<svg width="160" height="160" viewBox="0 0 160 160" fill="none" xmlns="http://www.w3.org/2000/svg">
<path d="M136.667 16.6667H23.3333L33.3333 130L79.9999 143.333L126.667 130L136.667 16.6667Z" fill="#F24B40"/>
<path d="M80 26.6667V133L117.333 122.333L125.667 26.6667H80Z" fill="#F8614A"/>
<path d="M110.333 43.3333H80V56.6666H96.3333L95.3333 70H80V83.3333H94.6667L93.6667 98.3333L80 103V117L106.333 108.333L108.667 70L110.333 43.3333Z" fill="white"/>
<path d="M79.9999 43.3333V56.6666H50.3333L49.3333 43.3333H79.9999ZM64.6666 70L65.3333 83.3333H79.9999V70H64.6666ZM65.9999 90H52.6666L53.6666 108.333L79.9999 117V103L66.3332 98.3333L65.9999 90Z" fill="#F8614A"/>
</svg>
