<svg width="120" height="120" viewBox="0 0 120 120" fill="none" xmlns="http://www.w3.org/2000/svg">
<path d="M0 120V0H120V120H0Z" fill="#F24B40"/>
<path d="M78.4601 89.8234C80.7668 93.57 83.2734 97.16 88.5834 97.16C93.0434 97.16 95.3834 94.9434 95.3834 91.8767C95.3834 88.2067 92.9634 86.9034 88.0568 84.7667L85.3668 83.62C77.6034 80.3267 72.4401 76.2 72.4401 67.4834C72.4401 59.45 78.5901 53.3367 88.2001 53.3367C95.0434 53.3367 99.9601 55.7067 103.507 61.9134L95.1268 67.27C93.2834 63.9767 91.2901 62.68 88.2001 62.68C85.0468 62.68 83.0501 64.67 83.0501 67.27C83.0501 70.4834 85.0501 71.7834 89.6668 73.7734L92.3568 74.92C101.507 78.8167 106.667 82.7967 106.667 91.7434C106.667 101.383 99.0535 106.667 88.8334 106.667C78.8368 106.667 73.1601 101.65 70.0001 95.44L78.4601 89.8234ZM39.8401 90.0967C41.5268 93.1167 44.0901 95.44 47.7768 95.44C51.3034 95.44 53.3334 94.0467 53.3334 88.63V53.3334H64.4434V90.3367C64.4434 101.56 57.9334 106.667 48.4268 106.667C39.8368 106.667 33.6368 100.847 31.1101 95.44L39.8401 90.0967Z" fill="#BB291F"/>
</svg>
