<svg width="160" height="160" viewBox="0 0 160 160" fill="none" xmlns="http://www.w3.org/2000/svg">
<path d="M136.667 16.6667H23.3333L33.3333 130L79.9999 143.333L126.667 130L136.667 16.6667Z" fill="#F24B40"/>
<path d="M80 26.6667V133L117.333 122.333L125.667 26.6667H80Z" fill="#F8614A"/>
<path d="M80 83.3333V70H108.667L106.333 108.333L80 117V103L93.6667 98.3333L94.6667 83.3333H80V83.3333ZM109.667 56.6666L110.667 43.3333H80V56.6666H109.667Z" fill="white"/>
<path d="M80.0001 103V117L53.6668 108.333L52.3334 90H65.6668L66.3334 98.3333L80.0001 103ZM63.6667 56.6666H80.0001V43.3333H49.6667L52.0001 83.3333H80.0001V70H64.6667L63.6667 56.6666Z" fill="#FE6767"/>
</svg>
