<svg width="148" height="111" viewBox="0 0 148 111" fill="none" xmlns="http://www.w3.org/2000/svg">
<path d="M126.89 63.52C121.763 63.5467 117.323 64.7767 113.603 66.6133C112.243 63.8967 110.863 61.5067 110.633 59.73C110.363 57.6567 110.05 56.4167 110.377 53.9467C110.703 51.4767 112.133 47.9767 112.113 47.7133C112.093 47.45 111.793 46.1933 108.837 46.17C105.88 46.15 103.35 46.74 103.053 47.52C102.757 48.3 102.187 50.0567 101.833 51.89C101.317 54.57 95.93 64.1333 92.8734 69.1333C91.8734 67.18 91.0234 65.46 90.8467 64.1C90.5767 62.0267 90.2634 60.7867 90.59 58.3167C90.9167 55.8467 92.3467 52.3467 92.3267 52.0833C92.3067 51.82 92.0067 50.5633 89.05 50.54C86.0934 50.52 83.5634 51.11 83.2667 51.89C82.97 52.67 82.65 54.4933 82.0467 56.26C81.44 58.0233 74.2834 73.9733 72.4067 78.11C71.45 80.2167 70.62 81.91 70.0334 83.0633C70.03 83.06 70.03 83.0567 70.03 83.0567C70.03 83.0567 69.9934 83.1333 69.9334 83.2633C69.43 84.2467 69.1334 84.79 69.1334 84.79C69.1334 84.79 69.1367 84.7967 69.1434 84.81C68.7434 85.5333 68.3167 86.2033 68.1067 86.2033C67.96 86.2033 67.6634 84.28 68.17 81.64C69.2367 76.1067 71.7934 67.48 71.77 67.18C71.7567 67.0267 72.2467 65.5233 70.1 64.7367C68.0134 63.9733 67.27 65.2467 67.08 65.25C66.8967 65.2533 66.76 65.7 66.76 65.7C66.76 65.7 69.0834 55.9967 62.3267 55.9967C58.1 55.9967 52.2467 60.62 49.3634 64.81C47.5434 65.8033 43.6467 67.93 39.5167 70.2C37.93 71.0733 36.31 71.9633 34.7734 72.81C34.67 72.6933 34.5634 72.58 34.4567 72.4633C26.26 63.72 11.1134 57.5367 11.7534 45.78C11.9867 41.5067 13.4734 30.2533 40.8634 16.6067C63.3 5.42668 81.2634 8.50335 84.3667 15.32C88.8 25.0633 74.7667 43.1667 51.4667 45.78C42.59 46.7767 37.9134 43.3333 36.75 42.0533C35.5267 40.7033 35.3434 40.6433 34.8867 40.8967C34.1434 41.31 34.6134 42.5 34.8867 43.21C35.5834 45.02 38.4367 48.23 43.3034 49.83C47.5867 51.2367 58.01 52.0067 70.6134 47.13C84.7334 41.67 95.7567 26.4767 92.5167 13.78C89.2234 0.866683 67.81 -3.37999 47.5434 3.82001C35.4667 8.10668 22.41 14.8333 13.02 23.6133C1.8567 34.0533 0.0766972 43.1433 0.810031 46.94C3.4167 60.4333 22.0134 69.22 29.46 75.73C29.0934 75.9333 28.7467 76.1233 28.4334 76.2967C24.7 78.1433 10.5234 85.5633 6.9767 93.4C2.95336 102.29 7.6167 108.67 10.7034 109.53C20.2667 112.19 30.08 107.403 35.3567 99.5367C40.63 91.6733 39.9867 81.43 37.5667 76.7567C37.5367 76.7 37.5034 76.6433 37.4734 76.5833C38.4367 76.0133 39.42 75.4333 40.3934 74.86C42.2934 73.7433 44.16 72.7033 45.7767 71.8233C44.87 74.3033 44.2067 77.28 43.8634 81.5767C43.4567 86.6233 45.5267 93.1467 48.2334 95.7133C49.4267 96.8433 50.86 96.87 51.7667 96.87C54.9167 96.87 56.3534 94.25 57.9367 91.15C59.8767 87.35 61.6 82.9233 61.6 82.9233C61.6 82.9233 59.44 94.8767 65.3267 94.8767C67.4734 94.8767 69.63 92.0933 70.5934 90.6767C70.5967 90.6933 70.5967 90.7 70.5967 90.7C70.5967 90.7 70.6534 90.6067 70.7634 90.4233C70.9867 90.0833 71.1134 89.8667 71.1134 89.8667C71.1134 89.8667 71.1167 89.8433 71.1234 89.8033C71.9867 88.3067 73.9 84.8933 76.7667 79.2633C80.4734 71.99 84.0267 62.8767 84.0267 62.8767C84.0267 62.8767 84.3567 65.1033 85.44 68.79C86.0767 70.9567 87.43 73.3533 88.5 75.6533C87.64 76.8467 87.1134 77.53 87.1134 77.53C87.1134 77.53 87.1167 77.5433 87.1267 77.5667C86.44 78.48 85.67 79.4633 84.8634 80.4233C81.9367 83.9067 78.4534 87.8867 77.9867 89.0333C77.4367 90.3867 77.5667 91.38 78.63 92.1833C79.4067 92.7667 80.7867 92.86 82.23 92.7633C84.86 92.5867 86.7067 91.9333 87.62 91.5367C89.0434 91.0333 90.7 90.2433 92.2534 89.1C95.1234 86.99 96.8534 83.9733 96.6867 79.9733C96.5934 77.77 95.8934 75.5867 95.0034 73.5267C95.2634 73.1533 95.5234 72.7733 95.7867 72.3933C100.31 65.78 103.82 58.5133 103.82 58.5133C103.82 58.5133 104.15 60.74 105.233 64.4267C105.78 66.29 106.863 68.3267 107.837 70.32C103.583 73.7767 100.947 77.7933 100.03 80.4267C98.3367 85.3 99.6634 87.5067 102.15 88.01C103.277 88.2367 104.87 87.72 106.067 87.2133C107.557 86.72 109.347 85.8967 111.02 84.6667C113.89 82.5567 116.65 79.6033 116.483 75.6067C116.407 73.7867 115.913 71.98 115.243 70.2467C118.85 68.7433 123.517 67.91 129.463 68.6033C142.22 70.0933 144.72 78.0567 144.243 81.39C143.763 84.7233 141.09 86.5567 140.193 87.11C139.3 87.6633 139.027 87.8567 139.1 88.2667C139.21 88.8633 139.623 88.8433 140.387 88.7133C141.437 88.5367 147.083 86.0033 147.327 79.85C147.63 72.03 140.147 63.45 126.89 63.52ZM28.5667 96.6667C24.34 101.277 18.44 103.017 15.9067 101.55C13.1734 99.9667 14.2567 93.18 19.44 88.2867C22.6 85.3067 26.68 82.56 29.3867 80.87C30.0034 80.5 30.9067 79.9567 32.0067 79.2967C32.19 79.1933 32.2934 79.1367 32.2934 79.1367L32.29 79.13C32.5034 79.0033 32.72 78.8733 32.9434 78.7367C34.8334 85.7 33.0034 91.83 28.5667 96.6667ZM59.35 75.7433C57.88 79.33 54.8 88.51 52.9234 88.0167C51.3134 87.5933 50.3334 80.6167 52.6034 73.75C53.7434 70.2933 56.1834 66.1633 57.6167 64.56C59.9234 61.98 62.4634 61.1367 63.08 62.1833C63.8634 63.5167 60.2734 73.4933 59.35 75.7433ZM84.78 87.8767C84.1567 88.2033 83.5834 88.4067 83.32 88.25C83.1234 88.1333 83.5767 87.7033 83.5767 87.7033C83.5767 87.7033 86.7567 84.28 88.01 82.7233C88.74 81.8167 89.5834 80.74 90.5034 79.54C90.51 79.66 90.5134 79.78 90.5134 79.8967C90.5067 83.9967 86.5467 86.7633 84.78 87.8767ZM104.37 83.41C103.903 83.08 103.983 82.01 105.513 78.6733C106.113 77.3633 107.487 75.16 109.867 73.0533C110.143 73.92 110.31 74.75 110.307 75.5233C110.277 80.6833 106.597 82.61 104.37 83.41Z" fill="#F24B40"/>
</svg>
