<svg width="31" height="34" viewBox="0 0 31 34" fill="none" xmlns="http://www.w3.org/2000/svg">
<path d="M27.8146 21.8598L28.8708 21.5014V20.4264L28.5187 18.9929H30.6312V17.5595L29.9271 15.7677L30.9833 15.4094V14.3343L28.5187 11.4674L27.4625 10.3924L27.8146 9.31729L28.1667 7.88386L28.5187 5.73371L28.1667 2.86686C28.1667 2.86686 27.9547 1.21772 27.8146 1.07507C27.6744 0.932421 27.4625 0 27.1104 0C26.7583 0 24.2937 1.43343 24.2937 1.43343C24.2937 1.43343 21.4771 3.58357 20.4208 3.58357C19.3646 3.58357 17.9562 3.22521 17.6042 3.22521H14.4354C14.0833 3.22521 11.2667 3.58357 10.2104 3.58357C9.15417 3.58357 5.98542 1.07507 5.98542 1.07507C5.98542 1.07507 4.57708 0 3.87292 0C3.16875 0 2.81667 1.07507 2.81667 1.43343V2.5085C2.81667 2.86686 2.46458 4.65864 2.46458 5.017C2.46458 5.37536 2.81667 8.24221 2.81667 8.60057C2.81667 8.95893 3.16875 10.034 3.16875 10.7507C3.16875 11.4674 1.05625 13.2592 0.704167 13.6176C0.352083 13.9759 0 14.6926 0 15.051C0 15.4094 1.40833 15.4094 1.40833 15.7677C1.40833 16.1261 1.05625 16.8428 0.704167 17.5595C0.352083 18.2762 0.352083 18.2762 0.352083 18.6346C0.352083 18.9929 1.05625 18.6346 1.40833 18.6346C1.76042 18.6346 2.81667 18.6346 2.81667 18.9929C2.81667 19.3513 2.1125 20.4264 2.1125 20.7847C2.1125 21.1431 2.1125 21.1431 2.46458 21.5014C2.81667 21.8598 3.52083 21.5014 3.87292 21.5014C4.225 21.5014 5.98542 22.2181 5.98542 22.2181C5.98542 22.2181 8.09792 22.5765 8.80208 24.0099C9.50625 25.4434 9.50625 27.5935 9.50625 27.5935C9.50625 27.5935 10.2104 30.4604 10.9146 31.5354C11.6187 32.6105 13.3792 33.3272 13.7312 33.3272H17.2521C18.3083 33.3272 20.0688 31.8938 20.4208 31.1771C20.7729 30.4604 21.125 29.3853 21.4771 28.6686C21.8292 27.9519 21.8292 27.0954 21.8292 26.1601C21.8292 25.2248 22.1812 24.3683 22.1812 24.3683C22.1812 24.3683 22.1812 23.6516 22.8854 22.9349C23.5896 22.2181 25.35 22.2181 25.35 22.2181L27.8146 21.8598Z" fill="white"/>
<path d="M6.33748 16.4844L4.22498 19.7096L5.28123 20.0679L7.39372 20.7847L9.15414 21.8597L10.5625 23.2932L10.9146 26.16L11.2666 28.6685L12.3229 30.4603L13.7312 31.5354H16.1958L17.9562 30.8187L19.3646 29.7436L19.7166 28.6685L20.0687 26.8767L20.4208 25.0849V23.6515L21.4771 22.2181L22.5333 21.5014L24.6458 20.4263L26.7583 19.7096L26.4062 19.3512L25.7021 17.9178L24.6458 16.4844L23.2375 15.4093L21.125 14.3342L18.6604 15.0509L16.9 17.2011L16.1958 19.3512H14.7875L14.0833 17.2011L12.675 15.4093L10.9146 14.3342L8.80206 14.6926L6.33748 16.4844Z" fill="#E73E33"/>
<path d="M14.0447 27.9723C13.6926 27.9723 12.2842 28.3307 12.2842 28.689C12.2842 29.0474 12.6363 29.7641 12.6363 29.7641C12.6363 29.7641 13.3405 30.8392 13.6926 30.8392H14.7488H16.1572C16.3369 30.8392 16.7641 30.7114 17.2134 30.4808C17.644 30.2598 18.0974 29.9395 18.2697 29.7641C18.6217 29.4057 18.6217 29.0474 18.6217 28.689C18.6217 28.3307 16.5479 27.9517 16.1958 27.9517C15.8437 27.9517 14.3967 27.9723 14.0447 27.9723Z" fill="white"/>
<path d="M11.2666 18.6347L9.50623 17.918L10.5625 18.993C10.9146 19.3514 11.2666 20.0681 11.6187 20.4265C11.9708 20.7848 12.3229 21.5015 12.675 21.5015C13.0271 21.5015 12.675 20.0681 12.675 19.7098C12.675 19.3514 11.2666 18.6347 11.2666 18.6347Z" fill="white"/>
<path d="M18.876 19.9892L18.1719 21.781L19.2281 20.7059C19.5802 20.3476 20.2844 19.9892 20.6365 19.6309C20.9885 19.2725 21.6927 18.9141 21.6927 18.5558C21.6927 18.1974 20.2844 18.5558 19.9323 18.5558C19.5802 18.5558 18.876 19.9892 18.876 19.9892Z" fill="white"/>
<path d="M26.7583 5.37524C26.7583 4.65853 26.7583 3.2251 26.4062 3.2251C26.0542 3.2251 24.9979 5.01688 24.9979 5.01688C24.9979 5.01688 23.9417 6.80867 23.9417 7.16703C23.9417 7.52538 26.0542 8.95881 26.4062 8.95881C26.7583 8.95881 26.7583 8.2421 26.7583 7.52538V5.37524Z" fill="#E73E33"/>
<path d="M4.8905 4.67928C4.8905 4.32092 4.8905 3.24585 5.24259 3.24585C5.59467 3.24585 5.59467 3.60421 5.94675 3.96256C6.29884 4.32092 7.003 5.75435 7.003 5.75435C7.003 5.75435 7.35509 6.47106 7.35509 6.82942C7.35509 7.18778 5.94675 8.97956 5.59467 8.97956C5.24259 8.97956 4.8905 7.54613 4.8905 7.18778V4.67928Z" fill="#E73E33"/>
</svg>
