<svg width="35" height="35" viewBox="0 0 35 35" fill="none" xmlns="http://www.w3.org/2000/svg">
<path d="M17.48 0.23999C7.93713 0.23999 0.200012 7.97711 0.200012 17.52C0.200012 25.6171 5.77569 32.3923 13.2925 34.2672C13.2119 34.0339 13.16 33.7632 13.16 33.4277V30.4742C12.4587 30.4742 11.2837 30.4742 10.9885 30.4742C9.80625 30.4742 8.75505 29.9659 8.24529 29.0213C7.67937 27.9715 7.58145 26.3659 6.17889 25.3838C5.76273 25.0569 6.07953 24.684 6.55905 24.7344C7.44465 24.9849 8.17905 25.5926 8.87025 26.4941C9.55857 27.3969 9.88257 27.6014 11.1685 27.6014C11.792 27.6014 12.7251 27.5654 13.6035 27.4272C14.0759 26.2277 14.8923 25.1232 15.8903 24.6019C10.136 24.0101 7.38993 21.1473 7.38993 17.2608C7.38993 15.5875 8.10273 13.9689 9.31377 12.6053C8.91633 11.2517 8.41665 8.49119 9.46641 7.43999C12.0555 7.43999 13.6208 9.11903 13.9967 9.57263C15.2869 9.13055 16.7039 8.87999 18.1928 8.87999C19.6847 8.87999 21.1074 9.13055 22.4005 9.57551C22.772 9.12479 24.3387 7.43999 26.9336 7.43999C27.9877 8.49263 27.4823 11.2646 27.0805 12.6153C28.2843 13.9761 28.9928 15.5904 28.9928 17.2608C28.9928 21.1445 26.2511 24.0057 20.5055 24.6005C22.0866 25.4256 23.24 27.744 23.24 29.4907V33.4277C23.24 33.5774 23.2069 33.6854 23.1896 33.8136C29.9231 31.4534 34.76 25.0598 34.76 17.52C34.76 7.97711 27.0229 0.23999 17.48 0.23999Z" fill="#F8614A"/>
</svg>
