<svg width="160" height="160" viewBox="0 0 160 160" fill="none" xmlns="http://www.w3.org/2000/svg">
<path d="M20 140V20H140V140H20Z" fill="#E73E33"/>
<path d="M98.46 109.823C100.767 113.57 103.273 117.16 108.583 117.16C113.043 117.16 115.383 114.943 115.383 111.877C115.383 108.207 112.963 106.903 108.057 104.767L105.367 103.62C97.6033 100.327 92.44 96.2 92.44 87.4833C92.44 79.45 98.59 73.3366 108.2 73.3366C115.043 73.3366 119.96 75.7066 123.507 81.9133L115.127 87.27C113.283 83.9766 111.29 82.68 108.2 82.68C105.047 82.68 103.05 84.67 103.05 87.27C103.05 90.4833 105.05 91.7833 109.667 93.7733L112.357 94.92C121.507 98.8166 126.667 102.797 126.667 111.743C126.667 121.383 119.053 126.667 108.833 126.667C98.8367 126.667 93.16 121.65 90 115.44L98.46 109.823ZM59.84 110.097C61.5267 113.117 64.09 115.44 67.7767 115.44C71.3033 115.44 73.3333 114.047 73.3333 108.63V73.3333H84.4433V110.337C84.4433 121.56 77.9333 126.667 68.4267 126.667C59.8367 126.667 53.6367 120.847 51.11 115.44L59.84 110.097Z" fill="#BB291F"/>
</svg>
