<svg width="37" height="37" viewBox="0 0 37 37" fill="none" xmlns="http://www.w3.org/2000/svg">
<path d="M32.344 0.33606H4.69598C2.31134 0.33606 0.375977 2.27142 0.375977 4.65606V32.3041C0.375977 34.6887 2.31134 36.6241 4.69598 36.6241H32.344C34.7286 36.6241 36.664 34.6887 36.664 32.3041V4.65606C36.664 2.27142 34.7286 0.33606 32.344 0.33606ZM11.608 14.1601V30.5761H6.42398V14.1601H11.608ZM6.42398 9.38214C6.42398 8.17254 7.46078 7.24806 9.01597 7.24806C10.5712 7.24806 11.5475 8.17254 11.608 9.38214C11.608 10.5917 10.6403 11.5681 9.01597 11.5681C7.46078 11.5681 6.42398 10.5917 6.42398 9.38214ZM30.616 30.5761H25.432C25.432 30.5761 25.432 22.5754 25.432 21.9361C25.432 20.2081 24.568 18.4801 22.408 18.4455H22.3389C20.248 18.4455 19.384 20.2253 19.384 21.9361C19.384 22.7223 19.384 30.5761 19.384 30.5761H14.2V14.1601H19.384V16.3719C19.384 16.3719 21.0515 14.1601 24.4038 14.1601C27.8339 14.1601 30.616 16.5188 30.616 21.2967V30.5761Z" fill="#F8614A"/>
</svg>
