<svg width="143" height="45" viewBox="0 0 143 45" fill="none" xmlns="http://www.w3.org/2000/svg">
<g clip-path="url(#clip0_193_22)" filter="url(#filter0_d_193_22)">
<rect opacity="0.8" y="0.143311" width="143" height="43.5246" rx="10" fill="#E73E33"/>
<path d="M53.5392 30.206L55.7512 29.926V13.182L53.6512 12.79V11.082H57.7112C58.0659 11.082 58.4579 11.0727 58.8872 11.054C59.3166 11.0353 59.6432 11.0167 59.8672 10.998C60.8379 10.9233 61.6406 10.886 62.2752 10.886C64.1979 10.886 65.7379 11.082 66.8952 11.474C68.0526 11.866 68.8926 12.4633 69.4152 13.266C69.9379 14.0687 70.1992 15.1233 70.1992 16.43C70.1992 17.718 69.8539 18.9127 69.1632 20.014C68.4726 21.1153 67.4739 21.8713 66.1672 22.282C66.9139 22.5993 67.5766 23.178 68.1552 24.018C68.7339 24.858 69.3499 25.95 70.0032 27.294C70.4699 28.2087 70.8246 28.8713 71.0672 29.282C71.3286 29.674 71.5806 29.898 71.8232 29.954L72.7472 30.234V31.886H67.9872C67.6886 31.886 67.3712 31.5873 67.0352 30.99C66.7179 30.374 66.2979 29.4127 65.7752 28.106C65.1592 26.5753 64.6272 25.3807 64.1792 24.522C63.7312 23.6633 63.2552 23.1313 62.7512 22.926H59.8672V29.926L62.4432 30.206V31.886H53.5392V30.206ZM62.4432 21.218C63.5072 21.218 64.3379 20.8353 64.9352 20.07C65.5326 19.3047 65.8312 18.1567 65.8312 16.626C65.8312 15.2633 65.5326 14.2553 64.9352 13.602C64.3566 12.9487 63.3486 12.622 61.9112 12.622C61.3886 12.622 60.9406 12.65 60.5672 12.706C60.2126 12.7433 59.9792 12.762 59.8672 12.762V21.162C60.0912 21.1993 60.6326 21.218 61.4912 21.218H62.4432ZM76.3789 38.858C76.0429 38.858 75.6789 38.83 75.2869 38.774C74.9136 38.718 74.6429 38.6527 74.4749 38.578V35.582C74.6056 35.6567 74.8669 35.7313 75.2589 35.806C75.6509 35.8807 76.0056 35.918 76.3229 35.918C77.2563 35.918 78.0216 35.61 78.6189 34.994C79.2349 34.378 79.8043 33.342 80.3269 31.886H78.8149L73.5509 18.306L72.2909 17.942V16.318H79.9909V17.942L77.9469 18.278L80.4389 26.034L81.4469 29.338L82.3149 26.034L84.6109 18.278L82.8469 17.942V16.318H88.9229V17.942L87.5509 18.278C86.5243 21.414 85.5069 24.438 84.4989 27.35C83.4909 30.262 82.9029 31.8953 82.7349 32.25C82.1376 33.818 81.5683 35.0687 81.0269 36.002C80.4856 36.9353 79.8416 37.6447 79.0949 38.13C78.3483 38.6153 77.4429 38.858 76.3789 38.858ZM91.8697 18.502H89.5177V16.934L91.8697 16.374V15.142C91.8697 13.9287 92.187 12.818 92.8217 11.81C93.475 10.802 94.343 10.0087 95.4257 9.42999C96.5084 8.83265 97.6564 8.53398 98.8697 8.53398C99.5044 8.53398 100.102 8.62732 100.662 8.81398V12.398C100.475 12.2113 100.102 12.0247 99.5417 11.838C99.0004 11.6513 98.431 11.558 97.8337 11.558C97.1057 11.558 96.583 11.7447 96.2657 12.118C95.967 12.4727 95.8177 13.0887 95.8177 13.966V16.346H99.3737V18.502H95.8177V29.982L98.7577 30.206V31.886H89.6577V30.206L91.8697 29.954V18.502ZM108.423 32.194C105.959 32.194 104.121 31.4753 102.907 30.038C101.713 28.582 101.115 26.6033 101.115 24.102C101.115 22.422 101.423 20.966 102.039 19.734C102.674 18.502 103.561 17.5593 104.699 16.906C105.838 16.2527 107.154 15.926 108.647 15.926C110.514 15.926 111.951 16.4207 112.959 17.41C113.967 18.3807 114.49 19.7713 114.527 21.582C114.527 22.814 114.453 23.7287 114.303 24.326H105.203C105.278 26.0247 105.679 27.35 106.407 28.302C107.135 29.2353 108.171 29.702 109.515 29.702C110.243 29.702 110.99 29.5807 111.755 29.338C112.539 29.0953 113.155 28.806 113.603 28.47L114.303 30.01C113.799 30.5513 112.978 31.0553 111.839 31.522C110.719 31.97 109.581 32.194 108.423 32.194ZM110.607 22.646C110.645 22.1233 110.663 21.722 110.663 21.442C110.663 18.9593 109.833 17.718 108.171 17.718C107.257 17.718 106.547 18.082 106.043 18.81C105.539 19.538 105.259 20.8167 105.203 22.646H110.607ZM116.762 30.234L118.61 30.01V18.978L116.818 18.474V16.542L121.158 15.954H121.242L121.942 16.514V17.13L121.858 19.398H121.942C122.073 19.0247 122.381 18.5673 122.866 18.026C123.351 17.466 123.958 16.9807 124.686 16.57C125.433 16.1407 126.235 15.926 127.094 15.926C127.505 15.926 127.859 15.982 128.158 16.094V20.294C127.598 19.902 126.917 19.706 126.114 19.706C124.751 19.706 123.566 20.07 122.558 20.798V29.982L125.806 30.234V31.886H116.762V30.234Z" fill="#F8F9F4"/>
<path d="M34.9646 27.0085L36.0209 26.6501V25.575L35.6688 24.1416H37.7813V22.7082L37.0771 20.9164L38.1334 20.558V19.483L35.6688 16.6161L34.6125 15.541L34.9646 14.466L35.3167 13.0325L35.6688 10.8824L35.3167 8.01554C35.3167 8.01554 35.1048 6.3664 34.9646 6.22375C34.8245 6.0811 34.6125 5.14868 34.2604 5.14868C33.9084 5.14868 31.4438 6.58211 31.4438 6.58211C31.4438 6.58211 28.6271 8.73225 27.5709 8.73225C26.5146 8.73225 25.1063 8.3739 24.7542 8.3739H21.5854C21.2334 8.3739 18.4167 8.73225 17.3604 8.73225C16.3042 8.73225 13.1354 6.22375 13.1354 6.22375C13.1354 6.22375 11.7271 5.14868 11.0229 5.14868C10.3188 5.14868 9.96669 6.22375 9.96669 6.58211V7.65718C9.96669 8.01554 9.61461 9.80732 9.61461 10.1657C9.61461 10.524 9.96669 13.3909 9.96669 13.7493C9.96669 14.1076 10.3188 15.1827 10.3188 15.8994C10.3188 16.6161 8.20627 18.4079 7.85419 18.7663C7.50211 19.1246 7.15002 19.8413 7.15002 20.1997C7.15002 20.558 8.55836 20.558 8.55836 20.9164C8.55836 21.2748 8.20627 21.9915 7.85419 22.7082C7.50211 23.4249 7.50211 23.4249 7.50211 23.7833C7.50211 24.1416 8.20627 23.7833 8.55836 23.7833C8.91044 23.7833 9.96669 23.7833 9.96669 24.1416C9.96669 24.5 9.26252 25.575 9.26252 25.9334C9.26252 26.2918 9.26252 26.2918 9.61461 26.6501C9.96669 27.0085 10.6709 26.6501 11.0229 26.6501C11.375 26.6501 13.1354 27.3668 13.1354 27.3668C13.1354 27.3668 15.2479 27.7252 15.9521 29.1586C16.6563 30.592 16.6563 32.7422 16.6563 32.7422C16.6563 32.7422 17.3604 35.609 18.0646 36.6841C18.7688 37.7592 20.5292 38.4759 20.8813 38.4759H24.4021C25.4584 38.4759 27.2188 37.0425 27.5709 36.3258C27.9229 35.609 28.275 34.534 28.6271 33.8173C28.9792 33.1005 28.9792 32.2441 28.9792 31.3088C28.9792 30.3734 29.3313 29.517 29.3313 29.517C29.3313 29.517 29.3313 28.8003 30.0354 28.0835C30.7396 27.3668 32.5 27.3668 32.5 27.3668L34.9646 27.0085Z" fill="white"/>
<path d="M13.4875 21.6331L11.375 24.8583L12.4312 25.2166L14.5437 25.9333L16.3042 27.0084L17.7125 28.4418L18.0646 31.3087L18.4167 33.8172L19.4729 35.609L20.8812 36.6841H23.3458L25.1062 35.9673L26.5146 34.8923L26.8667 33.8172L27.2187 32.0254L27.5708 30.2336V28.8002L28.6271 27.3668L29.6833 26.6501L31.7958 25.575L33.9083 24.8583L33.5562 24.4999L32.8521 23.0665L31.7958 21.6331L30.3875 20.558L28.275 19.4829L25.8104 20.1996L24.05 22.3498L23.3458 24.4999H21.9375L21.2333 22.3498L19.825 20.558L18.0646 19.4829L15.9521 19.8413L13.4875 21.6331Z" fill="#E73E33"/>
<path d="M21.1947 33.1212C20.8426 33.1212 19.4343 33.4796 19.4343 33.8379C19.4343 34.1963 19.7863 34.913 19.7863 34.913C19.7863 34.913 20.4905 35.9881 20.8426 35.9881H21.8988H23.3072C23.487 35.9881 23.9141 35.8604 24.3634 35.6297C24.7941 35.4087 25.2474 35.0884 25.4197 34.913C25.7718 34.5547 25.7718 34.1963 25.7718 33.8379C25.7718 33.4796 23.6979 33.1006 23.3458 33.1006C22.9938 33.1006 21.5468 33.1212 21.1947 33.1212Z" fill="white"/>
<path d="M18.4167 23.7834L16.6562 23.0667L17.7125 24.1417C18.0646 24.5001 18.4167 25.2168 18.7687 25.5752C19.1208 25.9335 19.4729 26.6502 19.825 26.6502C20.1771 26.6502 19.825 25.2168 19.825 24.8584C19.825 24.5001 18.4167 23.7834 18.4167 23.7834Z" fill="white"/>
<path d="M26.0261 25.1379L25.3219 26.9297L26.3781 25.8546C26.7302 25.4963 27.4344 25.1379 27.7865 24.7795C28.1386 24.4212 28.8427 24.0628 28.8427 23.7045C28.8427 23.3461 27.4344 23.7045 27.0823 23.7045C26.7302 23.7045 26.0261 25.1379 26.0261 25.1379Z" fill="white"/>
<path d="M33.9083 10.5239C33.9083 9.80721 33.9083 8.37378 33.5563 8.37378C33.2042 8.37378 32.1479 10.1656 32.1479 10.1656C32.1479 10.1656 31.0917 11.9574 31.0917 12.3157C31.0917 12.6741 33.2042 14.1075 33.5563 14.1075C33.9083 14.1075 33.9083 13.3908 33.9083 12.6741V10.5239Z" fill="#E73E33"/>
<path d="M12.0405 9.82796C12.0405 9.4696 12.0405 8.39453 12.3926 8.39453C12.7447 8.39453 12.7447 8.75289 13.0968 9.11125C13.4489 9.4696 14.153 10.903 14.153 10.903C14.153 10.903 14.5051 11.6197 14.5051 11.9781C14.5051 12.3365 13.0968 14.1282 12.7447 14.1282C12.3926 14.1282 12.0405 12.6948 12.0405 12.3365V9.82796Z" fill="#E73E33"/>
</g>
<defs>
<filter id="filter0_d_193_22" x="0" y="0.143311" width="143" height="44.5247" filterUnits="userSpaceOnUse" color-interpolation-filters="sRGB">
<feFlood flood-opacity="0" result="BackgroundImageFix"/>
<feColorMatrix in="SourceAlpha" type="matrix" values="0 0 0 0 0 0 0 0 0 0 0 0 0 0 0 0 0 0 127 0" result="hardAlpha"/>
<feOffset dy="1"/>
<feColorMatrix type="matrix" values="0 0 0 0 0 0 0 0 0 0 0 0 0 0 0 0 0 0 0.1 0"/>
<feBlend mode="normal" in2="BackgroundImageFix" result="effect1_dropShadow_193_22"/>
<feBlend mode="normal" in="SourceGraphic" in2="effect1_dropShadow_193_22" result="shape"/>
</filter>
<clipPath id="clip0_193_22">
<rect width="143" height="43.5246" fill="white" transform="translate(0 0.143311)"/>
</clipPath>
</defs>
</svg>
