<svg width="160" height="160" viewBox="0 0 160 160" fill="none" xmlns="http://www.w3.org/2000/svg">
<path d="M132.89 86.52C127.763 86.5467 123.323 87.7767 119.603 89.6133C118.243 86.8967 116.863 84.5067 116.633 82.73C116.363 80.6567 116.05 79.4167 116.377 76.9467C116.703 74.4767 118.133 70.9767 118.113 70.7133C118.093 70.45 117.793 69.1933 114.837 69.17C111.88 69.15 109.35 69.74 109.053 70.52C108.757 71.3 108.187 73.0567 107.833 74.89C107.317 77.57 101.93 87.1333 98.8733 92.1333C97.8733 90.18 97.0233 88.46 96.8467 87.1C96.5767 85.0267 96.2633 83.7867 96.59 81.3167C96.9167 78.8467 98.3467 75.3467 98.3267 75.0833C98.3067 74.82 98.0067 73.5633 95.05 73.54C92.0933 73.52 89.5633 74.11 89.2667 74.89C88.97 75.67 88.65 77.4933 88.0467 79.26C87.44 81.0233 80.2833 96.9733 78.4067 101.11C77.45 103.217 76.62 104.91 76.0333 106.063C76.03 106.06 76.03 106.057 76.03 106.057C76.03 106.057 75.9933 106.133 75.9333 106.263C75.43 107.247 75.1333 107.79 75.1333 107.79C75.1333 107.79 75.1367 107.797 75.1433 107.81C74.7433 108.533 74.3167 109.203 74.1067 109.203C73.96 109.203 73.6633 107.28 74.17 104.64C75.2367 99.1067 77.7933 90.48 77.77 90.18C77.7567 90.0267 78.2467 88.5233 76.1 87.7367C74.0133 86.9733 73.27 88.2467 73.08 88.25C72.8967 88.2533 72.76 88.7 72.76 88.7C72.76 88.7 75.0833 78.9967 68.3267 78.9967C64.1 78.9967 58.2467 83.62 55.3633 87.81C53.5433 88.8033 49.6467 90.93 45.5167 93.2C43.93 94.0733 42.31 94.9633 40.7733 95.81C40.67 95.6933 40.5633 95.58 40.4567 95.4633C32.26 86.72 17.1133 80.5367 17.7533 68.78C17.9867 64.5067 19.4733 53.2533 46.8633 39.6067C69.3 28.4267 87.2633 31.5033 90.3667 38.32C94.8 48.0633 80.7667 66.1667 57.4667 68.78C48.59 69.7767 43.9133 66.3333 42.75 65.0533C41.5267 63.7033 41.3433 63.6433 40.8867 63.8967C40.1433 64.31 40.6133 65.5 40.8867 66.21C41.5833 68.02 44.4367 71.23 49.3033 72.83C53.5867 74.2367 64.01 75.0067 76.6133 70.13C90.7333 64.67 101.757 49.4767 98.5167 36.78C95.2233 23.8667 73.81 19.62 53.5433 26.82C41.4667 31.1067 28.41 37.8333 19.02 46.6133C7.85667 57.0533 6.07667 66.1433 6.81 69.94C9.41667 83.4333 28.0133 92.22 35.46 98.73C35.0933 98.9333 34.7467 99.1233 34.4333 99.2967C30.7 101.143 16.5233 108.563 12.9767 116.4C8.95333 125.29 13.6167 131.67 16.7033 132.53C26.2667 135.19 36.08 130.403 41.3567 122.537C46.63 114.673 45.9867 104.43 43.5667 99.7567C43.5367 99.7 43.5033 99.6433 43.4733 99.5833C44.4367 99.0133 45.42 98.4333 46.3933 97.86C48.2933 96.7433 50.16 95.7033 51.7767 94.8233C50.87 97.3033 50.2067 100.28 49.8633 104.577C49.4567 109.623 51.5267 116.147 54.2333 118.713C55.4267 119.843 56.86 119.87 57.7667 119.87C60.9167 119.87 62.3533 117.25 63.9367 114.15C65.8767 110.35 67.6 105.923 67.6 105.923C67.6 105.923 65.44 117.877 71.3267 117.877C73.4733 117.877 75.63 115.093 76.5933 113.677C76.5967 113.693 76.5967 113.7 76.5967 113.7C76.5967 113.7 76.6533 113.607 76.7633 113.423C76.9867 113.083 77.1133 112.867 77.1133 112.867C77.1133 112.867 77.1167 112.843 77.1233 112.803C77.9867 111.307 79.9 107.893 82.7667 102.263C86.4733 94.99 90.0267 85.8767 90.0267 85.8767C90.0267 85.8767 90.3567 88.1033 91.44 91.79C92.0767 93.9567 93.43 96.3533 94.5 98.6533C93.64 99.8467 93.1133 100.53 93.1133 100.53C93.1133 100.53 93.1167 100.543 93.1267 100.567C92.44 101.48 91.67 102.463 90.8633 103.423C87.9367 106.907 84.4533 110.887 83.9867 112.033C83.4367 113.387 83.5667 114.38 84.63 115.183C85.4067 115.767 86.7867 115.86 88.23 115.763C90.86 115.587 92.7067 114.933 93.62 114.537C95.0433 114.033 96.7 113.243 98.2533 112.1C101.123 109.99 102.853 106.973 102.687 102.973C102.593 100.77 101.893 98.5867 101.003 96.5267C101.263 96.1533 101.523 95.7733 101.787 95.3933C106.31 88.78 109.82 81.5133 109.82 81.5133C109.82 81.5133 110.15 83.74 111.233 87.4267C111.78 89.29 112.863 91.3267 113.837 93.32C109.583 96.7767 106.947 100.793 106.03 103.427C104.337 108.3 105.663 110.507 108.15 111.01C109.277 111.237 110.87 110.72 112.067 110.213C113.557 109.72 115.347 108.897 117.02 107.667C119.89 105.557 122.65 102.603 122.483 98.6067C122.407 96.7867 121.913 94.98 121.243 93.2467C124.85 91.7433 129.517 90.91 135.463 91.6033C148.22 93.0933 150.72 101.057 150.243 104.39C149.763 107.723 147.09 109.557 146.193 110.11C145.3 110.663 145.027 110.857 145.1 111.267C145.21 111.863 145.623 111.843 146.387 111.713C147.437 111.537 153.083 109.003 153.327 102.85C153.63 95.03 146.147 86.45 132.89 86.52ZM34.5667 119.667C30.34 124.277 24.44 126.017 21.9067 124.55C19.1733 122.967 20.2567 116.18 25.44 111.287C28.6 108.307 32.68 105.56 35.3867 103.87C36.0033 103.5 36.9067 102.957 38.0067 102.297C38.19 102.193 38.2933 102.137 38.2933 102.137L38.29 102.13C38.5033 102.003 38.72 101.873 38.9433 101.737C40.8333 108.7 39.0033 114.83 34.5667 119.667ZM65.35 98.7433C63.88 102.33 60.8 111.51 58.9233 111.017C57.3133 110.593 56.3333 103.617 58.6033 96.75C59.7433 93.2933 62.1833 89.1633 63.6167 87.56C65.9233 84.98 68.4633 84.1367 69.08 85.1833C69.8633 86.5167 66.2733 96.4933 65.35 98.7433ZM90.78 110.877C90.1567 111.203 89.5833 111.407 89.32 111.25C89.1233 111.133 89.5767 110.703 89.5767 110.703C89.5767 110.703 92.7567 107.28 94.01 105.723C94.74 104.817 95.5833 103.74 96.5033 102.54C96.51 102.66 96.5133 102.78 96.5133 102.897C96.5067 106.997 92.5467 109.763 90.78 110.877ZM110.37 106.41C109.903 106.08 109.983 105.01 111.513 101.673C112.113 100.363 113.487 98.16 115.867 96.0533C116.143 96.92 116.31 97.75 116.307 98.5233C116.277 103.683 112.597 105.61 110.37 106.41Z" fill="#E73E33"/>
</svg>
